Exact Audio Copy V0.99 prebeta 3 from 28. July 2007

Отчёт EAC об извлечении, выполненном 23. декабря 2007, 21:40

Aborym / Generator

Дисковод: ASUS    DRW-1608P   Adapter: 2  ID: 0

Режим чтения                 : Достоверность
Использование точного потока : Да
Отключение кэша аудио        : Да
Использование указателей C2  : Нет

Коррекция смещения при чтении                     : 48
Способность читать области Lead-in и Lead-out     : Нет
Заполнение пропущенных сэмплов тишиной            : Да
Удаление блоков с тишиной в начале и конце        : Нет
При вычислениях CRC использовались нулевые сэмплы : Да
Интерфейс                                         : Встроенный Win32-интерфейс для Win NT/2000

Выходной формат          : Пользовательский кодировщик
Выбранный битрейт        : 768 kBit/s
Качество                 : Высокий
Добавление ID3-тэга      : Нет
Утилита сжатия           : C:\Program Files\Exact Audio Copy\FLAC\FLAC.EXE
Дополнительные параметры : -6 -V -T "ARTIST=%a" -T "TITLE=%t" -T "ALBUM=%g" -T "DATE=%y" -T "TRACKNUMBER=%n" -T "GENRE=%m" -T "COMMENT=%e" %s -o %d


TOC извлечённого CD

     Трек |   Старт  | Длительность | Начальный сектор | Конечный сектор 
    ---------------------------------------------------------------------
       1  |  0:00.00 |    1:12.41   |           0      |       5440      
       2  |  1:12.41 |    5:53.31   |        5441      |      31946      
       3  |  7:05.72 |    5:08.19   |       31947      |      55065      
       4  | 12:14.16 |    6:24.64   |       55066      |      83929      
       5  | 18:39.05 |    5:44.73   |       83930      |     109802      
       6  | 24:24.03 |    5:23.18   |      109803      |     134045      
       7  | 29:47.21 |    4:08.50   |      134046      |     152695      
       8  | 33:55.71 |    7:12.49   |      152696      |     185144      
       9  | 41:08.45 |    3:14.57   |      185145      |     199751      


Характеристики диапазона извлечения и сообщения об ошибках

Выбранный диапазон

     Имя файла C:\Music\Aborym\Generator.wav

     Пиковый уровень 97.8 %
     Качество диапазона 100.0 %
     CRC копии EF510829
     Копирование... OK

Ошибок не произошло

Конец отчёта
